<svg width="24" height="24" viewBox="0 0 24 24" fill="none" xmlns="http://www.w3.org/2000/svg">
<g clip-path="url(#clip0_407_2)">
<path d="M21.8478 8.70477C22.0315 8.71481 22.142 8.71906 22.3304 8.71481C22.3295 8.94204 22.2934 10.2755 22.3876 10.3689C22.4926 10.4729 23.7814 10.4417 23.9607 10.4271C23.9361 10.6095 23.9394 10.792 23.9587 10.9746C23.7564 10.9569 22.5729 10.943 22.4082 11.0037C22.3602 11.0618 22.3325 11.2182 22.3352 11.2812C22.3469 11.5506 22.2733 12.8143 22.3998 12.9703C22.6143 13.0548 23.6448 13.0089 23.9705 13.0329C23.9383 13.1862 23.9405 13.3847 23.9567 13.5403C23.6165 13.5301 23.2314 13.5552 22.8956 13.5367C22.2142 13.4989 22.3275 13.7148 22.3308 14.3133C22.3338 14.6342 22.331 14.9552 22.3224 15.2761C22.1694 15.2706 21.997 15.2586 21.847 15.2785C21.8402 15.0209 21.8757 13.7529 21.8031 13.6157C21.639 13.5014 19.9649 13.4832 19.9403 13.6453C19.8661 14.1346 19.9313 14.7618 19.9013 15.2709C19.7952 15.2717 19.689 15.2703 19.583 15.2667C19.5478 15.2654 19.435 15.2697 19.4302 15.2417C19.3779 14.9413 19.5018 13.785 19.3557 13.5951C19.2914 13.5117 17.9942 13.5367 17.794 13.5361C17.8038 13.366 17.7997 13.1992 17.7975 13.0289C18.0866 13.0041 19.1621 13.0557 19.3289 12.9843C19.4672 12.8044 19.4629 11.2477 19.3616 11.034C19.2296 10.9185 18.0192 10.9551 17.793 10.9748C17.8029 10.7804 17.8001 10.6236 17.7947 10.4285C18.2114 10.4621 18.8748 10.4414 19.2896 10.4044C19.5617 10.3802 19.3439 8.84953 19.4353 8.71081C19.6113 8.71762 19.7364 8.71983 19.9117 8.70859C19.8837 9.16885 19.9032 9.85123 19.9351 10.3104C19.949 10.5105 21.6111 10.4481 21.7777 10.3837C21.8883 10.2448 21.8406 8.99115 21.8478 8.70477ZM21.505 13.0189C21.5858 13.019 21.7122 13.0334 21.7744 12.972C21.8982 12.8502 21.8468 11.6304 21.8451 11.4034C21.8442 11.2786 21.8385 11.1039 21.7646 11.0011C21.631 10.9387 20.5225 10.962 20.3072 10.9673C20.119 10.9697 19.9116 10.9398 19.9164 11.2108C19.9212 11.4831 19.8645 12.7801 19.9612 12.9476C20.1114 13.0706 21.2327 13.0145 21.505 13.0189Z" fill="black"/>
<path d="M0 11.0356L0.00529993 11.0194C0.0876368 10.7616 0.117851 10.2724 0.166118 9.98757C0.247136 9.50953 0.349667 9.04553 0.480828 8.57992C1.36133 5.45023 3.40686 2.8399 6.14228 1.35527C8.78952 -0.0723889 11.8593 -0.331246 14.6849 0.634924C16.9609 1.42837 18.8984 2.89999 20.3198 4.94444C20.4686 5.15852 20.7574 5.69216 20.9111 5.83897C20.7431 5.91767 20.3787 6.16341 20.1998 6.27355L18.709 7.18877L17.0449 8.20647C16.8301 8.33777 16.3708 8.60196 16.191 8.74323C16.0385 8.51966 15.8245 8.19598 15.6569 7.99152C14.7529 6.88658 13.5112 6.15662 12.1508 5.93032C10.6333 5.68602 9.086 6.07796 7.83483 7.02353C7.48957 7.28987 6.97724 7.85032 6.68791 8.20024C6.07362 8.94323 5.66623 10.0546 5.51134 11.0191C5.2624 12.5689 5.63506 14.4045 6.51129 15.6842C7.41124 17.0159 8.77264 17.9116 10.2946 18.1734C11.8238 18.4269 13.435 18.0719 14.6769 17.0792C15.3884 16.5105 15.7362 16.0453 16.2434 15.3136C16.7731 15.6064 17.374 15.9984 17.8975 16.3211L20.8802 18.1614C20.4676 18.8179 20.2538 19.2054 19.7489 19.8341C18.0792 21.8763 15.8168 23.2675 13.3199 23.7872C13.0641 23.8413 12.0831 23.9427 11.9526 24H10.5835C10.4838 23.9581 10.3176 23.9402 10.2096 23.9298C6.62128 23.5854 3.34614 21.3312 1.53676 18.0235C1.46447 17.8913 1.36888 17.7583 1.30072 17.618C0.992024 16.9821 0.716146 16.3071 0.515823 15.6228C0.367726 15.1061 0.248713 14.5806 0.159418 14.0489C0.122477 13.8162 0.0687545 13.2493 0.00545572 13.0537L0 13.0374V11.0356Z" fill="black"/>
</g>
<defs>
<clipPath id="clip0_407_2">
<rect width="24" height="24" fill="white"/>
</clipPath>
</defs>
</svg>
