<?xml version="1.0" encoding="utf-8" ?><svg xmlns="http://www.w3.org/2000/svg" xmlns:xlink="http://www.w3.org/1999/xlink" width="300" height="282" viewBox="0 0 300 282"><path d="M273.097 102.281C275.394 102.399 276.775 102.449 279.13 102.399C279.119 105.069 278.667 120.737 279.845 121.834C281.158 123.056 297.267 122.69 299.509 122.519C299.201 124.662 299.243 126.806 299.484 128.951C296.955 128.743 282.161 128.58 280.103 129.293C279.502 129.976 279.156 131.814 279.19 132.554C279.336 135.72 278.416 150.568 279.998 152.401C282.679 153.394 295.56 152.854 299.631 153.137C299.229 154.938 299.256 157.27 299.459 159.098C295.206 158.979 290.393 159.274 286.195 159.056C277.678 158.612 279.094 161.149 279.135 168.181C279.173 171.952 279.138 175.724 279.03 179.494C277.118 179.429 274.962 179.289 273.087 179.522C273.002 176.496 273.446 161.597 272.539 159.985C270.488 158.642 249.561 158.428 249.254 160.332C248.326 166.082 249.141 173.451 248.766 179.433C247.44 179.442 246.113 179.426 244.788 179.384C244.348 179.368 242.938 179.419 242.877 179.09C242.224 175.56 243.773 161.974 241.946 159.743C241.143 158.762 224.927 159.056 222.425 159.049C222.548 157.05 222.496 155.091 222.469 153.089C226.082 152.798 239.526 153.405 241.611 152.565C243.34 150.452 243.286 132.16 242.02 129.649C240.37 128.292 225.24 128.723 222.413 128.954C222.536 126.67 222.501 124.827 222.434 122.535C227.643 122.93 235.935 122.686 241.12 122.252C244.521 121.967 241.799 103.982 242.941 102.352C245.141 102.432 246.705 102.458 248.896 102.326C248.546 107.734 248.79 115.752 249.189 121.147C249.363 123.498 270.139 122.765 272.221 122.009C273.604 120.376 273.008 105.646 273.097 102.281ZM268.813 152.972C269.823 152.973 271.402 153.142 272.18 152.421C273.727 150.99 273.085 136.657 273.064 133.99C273.052 132.524 272.981 130.471 272.057 129.263C270.387 128.53 256.531 128.804 253.84 128.866C251.487 128.894 248.895 128.543 248.955 131.727C249.015 134.926 248.306 150.166 249.515 152.134C251.392 153.579 265.409 152.92 268.813 152.972Z"/><path d="M0 129.668L0.0662491 129.478C1.09546 126.449 1.47314 120.701 2.07648 117.354C3.0892 111.737 4.37084 106.285 6.01035 100.814C17.0166 64.0402 42.5858 33.3688 76.7785 15.9244C109.869 -0.85057 148.241 -3.89214 183.561 7.46036C212.011 16.7834 236.23 34.0749 253.997 58.0972C255.858 60.6126 259.467 66.8829 261.389 68.6079C259.289 69.5326 254.734 72.42 252.498 73.7142L233.862 84.468L213.061 96.426C210.376 97.9688 204.635 101.073 202.387 102.733C200.481 100.106 197.806 96.3028 195.711 93.9004C184.411 80.9173 168.89 72.3403 151.885 69.6813C132.916 66.8107 113.575 71.416 97.9354 82.5265C93.6196 85.656 87.2155 92.2412 83.5989 96.3528C75.9202 105.083 70.8279 118.142 68.8917 129.474C65.78 147.685 70.4383 169.253 81.3911 184.289C92.6405 199.937 109.658 210.461 128.683 213.537C147.798 216.516 167.937 212.345 183.461 200.681C192.355 193.998 196.703 188.532 203.043 179.935C209.664 183.375 217.175 187.981 223.719 191.773L261.002 213.396C255.845 221.11 253.173 225.663 246.861 233.051C225.99 257.046 197.71 273.393 166.499 279.5C163.301 280.135 151.039 281.327 149.407 282L132.294 282C131.048 281.508 128.97 281.297 127.62 281.175C82.766 277.128 41.8268 250.641 19.2095 211.776C18.3059 210.223 17.111 208.66 16.259 207.011C12.4003 199.54 8.95183 191.608 6.44779 183.568C4.59657 177.497 3.10891 171.322 1.99273 165.075C1.53096 162.34 0.859431 155.679 0.0681965 153.381L0 153.189L0 129.668Z"/></svg>