<?xml version="1.0" encoding="utf-8" ?><svg xmlns="http://www.w3.org/2000/svg" xmlns:xlink="http://www.w3.org/1999/xlink" width="167" height="176" viewBox="0 0 167 176"><path d="M71.5889 0.892523C86.9933 -0.442984 106.068 3.00333 119.113 11.6582C137.406 23.7946 143.825 40.5398 148.181 60.9995C145.945 61.1049 143.595 61.0907 141.354 61.0654C127.375 60.9075 113.285 61.365 99.3191 60.9941C98.9134 58.0323 98.1097 55.1388 96.9299 52.392C94.7935 47.4974 90.5516 42.9284 85.5167 40.9691C81.023 39.2204 74.9095 39.3182 70.4986 41.28C64.7709 43.8274 61.2377 49.1986 59.0494 54.8597C52.9261 70.6998 52.0511 107.587 59.0268 123.191C61.2917 128.258 65.4862 132.735 70.7367 134.712C75.8347 136.631 82.5373 136.422 87.4724 134.179C94.3535 131.052 97.1461 124.779 99.6516 118.151C102.658 117.758 110.998 117.982 114.401 117.984L144.562 118.01L148.093 118.032C147.305 121.029 146.813 124.055 145.961 127.064C137.528 156.843 112.226 174.282 81.7645 175.561C31.2736 177.683 1.53758 142.494 0.435713 93.9005C-0.620973 47.2999 19.8577 3.28826 71.5889 0.892523Z"/><path d="M155.145 65.2177L162.657 65.2971C161.732 69.2677 161.333 73.4271 160.369 77.5251C162.177 77.5971 165.355 77.6639 167 78.1965L167 78.6806C166.282 79.6478 165.699 83.2613 165.271 84.8021C163.315 84.9212 161.148 85.0558 159.221 84.7706L158.17 89.7253C160.439 89.6746 162.431 89.7755 164.699 89.8917C164.336 92.2492 164.038 94.5422 163.388 96.8391C161.01 96.9741 159.323 97.0139 156.947 96.9285C155.911 101.321 155.42 106.128 154.263 110.366C151.748 110.408 149.402 110.131 146.828 110.287C147.422 106.1 148.375 101.075 149.194 96.9055C147.337 96.9564 146.026 96.9121 144.185 96.8035C142.955 100.839 142.568 105.995 141.46 110.267C138.93 110.462 136.574 110.058 133.944 110.318C134.847 106.861 135.78 100.561 136.447 96.8517C133.861 97.0048 131.75 96.5746 128.967 97.0455C129.444 94.7642 129.836 92.1904 130.239 89.8747C132.73 89.7443 135.222 89.6479 137.716 89.5856C138.053 88.0198 138.341 86.4441 138.58 84.8606C136.262 84.8332 133.375 84.725 131.128 84.9899C131.672 82.7733 132.137 80.1168 132.641 77.8215C135.05 77.7141 137.462 77.6919 139.872 77.755C140.699 73.6106 141.478 69.4569 142.209 65.2946C144.458 65.1748 147.479 65.267 149.786 65.2702C148.976 68.9378 148.452 74.3218 147.422 77.7304C149.194 77.7036 150.966 77.6667 152.738 77.6195C153.392 73.9525 154.199 68.6946 155.145 65.2177ZM145.277 89.7303C146.666 89.6992 149.003 89.7207 150.314 89.5866C150.747 87.9227 151.091 86.6784 151.289 84.9526C149.65 84.9525 147.915 84.9828 146.285 84.9165C145.97 86.5255 145.634 88.1302 145.277 89.7303Z"/></svg>