<?xml version="1.0" encoding="utf-8" ?><svg xmlns="http://www.w3.org/2000/svg" xmlns:xlink="http://www.w3.org/1999/xlink" width="667" height="667" viewBox="0 0 667 667"><path d="M316.416 0L350.326 0C355.755 1.3373 365.349 1.36495 371.335 2.06372C385.227 3.66761 399.006 6.1304 412.593 9.43795C496.107 29.8699 568.52 81.734 614.747 154.227C638.728 191.738 654.905 233.697 662.312 277.598C663.702 285.605 664.746 293.669 665.442 301.767C665.789 305.66 666.229 314.341 667 317.71L667 349.614C665.405 356.052 665.584 366.507 664.641 373.487C662.824 386.934 660.689 399.703 657.462 412.914C636.822 496.716 584.571 569.288 511.643 615.443C475.02 638.65 434.218 654.482 391.527 662.052C385.287 663.129 379.058 664.133 372.779 664.961C367.372 665.674 355.323 665.702 350.63 667L316.1 667C313.48 666.258 300.891 665.463 297.132 665.103C289.788 664.333 282.476 663.292 275.209 661.98C231.717 654.293 190.201 637.987 153.102 614.023C81.866 568.161 30.711 496.951 9.98767 414.803C6.49416 400.91 3.90005 386.807 2.22147 372.581C1.42442 365.886 1.48297 356.954 0 350.692L0 316.034C0.877717 313.174 1.45825 302.015 1.83694 298.202C2.64213 290.524 3.71558 282.876 5.05533 275.273C12.6443 232.21 28.671 191.071 52.2139 154.224C98.3302 81.7813 170.636 29.9419 254.047 9.51911C267.568 6.23272 281.274 3.76308 295.091 2.12358C301.093 1.42221 310.973 1.34594 316.416 0Z"/><path fill="#FEFEFE" d="M345.084 122.566C352.445 121.596 371.416 123.374 379.149 124.795C382.1 125.337 387.34 127.32 390.387 128.367C398.03 130.991 408.451 138.515 411.81 145.999C412.278 147.042 414.021 154.166 414.478 155.953C415.846 161.307 419.119 170.413 419.552 175.664C420.249 184.122 419.606 195.057 418.718 203.547C418.445 206.157 416.875 211.451 416.286 214.345C413.914 225.989 411.863 237.545 407.712 248.724C405.125 255.381 401.75 261.415 398.819 267.955C391.154 285.06 410.198 297.739 423.387 303.828C428.022 305.968 435.138 305.626 439.777 303.457C446.71 300.217 450.929 293.563 453.849 286.727C455.639 282.471 453.968 269.482 452.85 264.669C452.709 264.062 449.932 259.64 449.236 258.232C456.69 264.784 465.433 268.652 473.786 273.651C481.851 278.478 489.378 282.474 497.639 286.816C508.092 292.309 517.133 298.266 528.495 302.097C526.959 302.09 525.283 302.175 523.776 301.875C520.327 301.189 517.34 299.803 513.726 300.05C505.976 300.578 478.084 315.586 472.789 321.754C471.129 323.687 470.515 325.598 470.773 328.135C471.189 332.217 473.73 336.334 477.299 338.4C482.361 341.33 492.374 342.242 498.346 343.302C511.244 345.59 533.946 351.954 543.872 360.319C555.435 370.063 560.962 383.728 562.402 398.49C562.637 400.901 561.842 402.868 561.39 405.195C559.888 412.914 558.378 419.232 555.099 426.433C545.665 447.157 533.982 450.409 514.23 458.004C512.553 458.648 510.793 459.546 509.591 460.918C507.221 463.622 504.116 474.83 502.248 478.855C497.49 489.109 490.42 500.434 483.421 509.317C474.411 520.754 456.306 537.788 442.734 542.638C438.309 541.519 434.172 539.165 429.916 537.569C417.374 532.902 406.092 527.59 393.816 522.046C388.714 519.742 375.532 511.488 369.514 514.567C366.455 516.132 367.394 524.942 366.61 528.662C365.105 535.795 361.907 540.642 355.896 544.917C353.524 540.19 350.197 534.677 346.307 531.002C343.081 527.955 340.736 527.876 336.677 528.043C333.233 528.353 330.062 529.468 326.867 529.956C321.328 530.8 318.835 530.984 313.348 532.666C307.505 534.458 298.263 538.532 292.473 539.616C282.679 541.45 264.677 545.942 255.029 542.602C252.87 541.855 250.082 538.084 246.452 536.442C243.215 534.979 236.503 533.322 234.453 531.639C228.72 526.93 223.883 522.674 216.74 519.849C210.425 517.351 201.759 522.042 195.551 517.85C187.464 510.8 190.905 495.249 189.547 484.733C187.604 469.68 167.947 478.105 162.951 485.685C162.382 490.655 162.86 498.174 163.775 503.062C165.087 504.455 166.408 505.838 167.74 507.212C167.879 513.483 166.974 519.256 163.428 524.61C161.512 524.242 159.903 524.314 157.97 524.323C159.309 506.649 156.723 487.755 159.89 470.228C161.391 464.104 155.437 463.278 150.607 465.348C142.766 468.708 128.21 479.725 119.46 475.848C116.776 474.658 109.46 464.328 106.697 461.639C106.05 458.122 104.825 455.682 103.846 452.324C101.828 445.396 102.234 436.808 103.472 429.767C104.073 426.346 105.417 422.965 105.791 419.522C106.242 415.369 105.914 411.21 106.621 407.088C107.027 404.722 109.322 402.09 109.453 399.717C109.942 390.928 110.706 382.33 112.261 373.658C112.5 371.116 113.16 368.873 113.854 366.481C116.812 356.286 124.111 351.115 129.847 343.036C132.127 339.826 134.968 332.803 137.157 328.853C144.77 315.121 152.644 301.779 161.586 288.846C164.892 284.026 168.841 277.799 172.537 273.369C176.405 268.732 184.336 269.197 189.073 263.417C192.959 258.677 201.282 248.813 201.048 242.617C200.803 236.149 192.513 232.867 187.81 228.487L187.374 228.078C187.289 227.795 187.204 227.512 187.119 227.229C185.39 222.537 182.751 219.935 181.604 214.817C179.444 205.175 183.221 197.356 186.119 188.414C187.26 184.728 187.437 179.686 187.201 175.769C182.156 169.721 181.552 167.073 179.333 159.557C185.957 162.825 191.937 162.113 197.424 164.848C196.606 171.306 195.515 175.987 204.032 175.349C207.293 175.239 211.253 174.317 213.391 171.586C216.057 168.182 215.279 160.784 214.986 156.744C219.395 151.948 223.642 149.583 230.105 148.776C232.023 148.537 234.609 156.287 234.903 157.895C235.226 159.656 235.999 161.892 235.729 163.716C235.216 166.86 231.851 175.629 234.463 178.169C236.988 180.624 248.282 181.04 250.971 177.615C254.392 173.256 253.714 170.841 253.687 166.15C255.261 165.696 257.578 164.838 259.052 164.177C275.781 156.671 291.409 150.403 305.972 138.993C313.839 132.83 335.033 123.602 345.084 122.566Z"/><path d="M278.072 255.228C283.516 255.982 291.14 257.145 295.882 259.889C301.494 263.136 306.958 270.641 311.867 275.213C322.693 285.294 349.863 303.395 364.387 305.166C369.834 305.83 377.64 306.252 382.638 303.602C384.555 302.585 386.277 301.069 387.975 299.728C377.177 298.765 365.225 295.347 354.994 291.767C350.754 290.283 343.428 287.627 341.003 283.968C337.272 278.34 336.825 266.146 338.059 259.866C343.711 252.495 352.734 256.618 360.542 257.922C363.534 258.411 366.563 258.642 369.595 258.613C374.574 258.537 386.688 256.718 390.656 257.502C391.885 258.923 391.464 261.554 391.431 263.588C391.287 271.849 392.379 280.086 394.671 288.025C396.889 295.831 397.869 295.876 404.174 300.151C408.269 303.202 427.574 310.51 429.119 314.26C435.368 329.422 439.656 346.378 444.388 362.137C447.181 371.437 451.491 383.972 447.955 393.24C447.022 395.686 443.679 399.116 442.486 401.638C440.032 407.308 432.885 425.06 435.448 430.749C438.059 436.544 441.188 442.27 443.462 449.771C438.466 459.761 432.908 465.433 425.257 473.347C423.075 475.603 420.198 478.487 418.307 480.87C418.189 485.339 416.371 495.365 418.292 498.124C418.755 498.385 419.648 498.953 420.258 498.539C450.545 477.966 470.346 442.436 475.762 406.561C477.271 396.57 473.105 382.676 476.152 372.73C476.9 370.288 481.797 364.515 483.321 361.767L483.546 361.356L483.566 361.359C485.317 363.241 485.93 363.018 488.494 363.173C486.896 379.092 489.976 400.828 493.605 416.418C494.397 419.819 496.039 423.561 497.131 426.893C499.039 432.714 500.916 438 503.317 443.643C501.126 447.095 497.593 450.845 495.227 454.403C492.162 459.011 489.867 463.918 487.54 468.92C482.051 481.666 470.733 495.434 464.111 508.096C461.697 512.712 447.338 524.743 442.53 526.954C435.744 530.075 419.517 533.675 413.091 527.575C409.206 524.311 406.504 519.835 403.614 515.61C401.533 511.446 393.547 502.254 392.67 498.196C390.693 489.042 388.724 474.22 388.18 464.867C387.787 458.128 388.658 453.063 387.533 446.897C386.177 445.126 383.845 445.53 382.201 446.594C373.575 452.178 373.433 463.239 371.982 471.718C371.487 474.494 370.792 477.23 369.903 479.906C367.396 487.687 365.197 496.584 358.982 502.254C357.257 503.828 355.803 505.804 353.196 504.565C351.917 503.044 351.814 496.192 351.231 493.73C350.734 491.631 350.375 489.128 349.853 486.955C349.315 484.712 348.84 482.343 348.337 480.092C323.189 481.561 333.495 495.368 333.866 512.324C326.6 518.304 322.773 524.461 313.182 526.682C308.828 527.691 305.209 527.515 300.925 528.234C290.825 529.929 280.712 531.805 270.405 530.954C261.294 529.925 235.55 513.59 230.453 506.045C223.236 495.363 215.632 476.481 212.216 463.764C210.491 459.159 210.104 452.756 207.968 448.38C203.809 439.861 196.93 434.488 194.055 424.837C189.157 408.399 183.318 382.537 194.176 367.624C198.771 361.312 207.904 355.703 212.18 348.5C215.245 343.777 220.639 334.599 222.056 329.29C223.434 324.127 224.371 315.643 225.288 310.208C226.33 303.473 224.967 292.598 221.115 286.871C215.861 279.06 212.807 279.461 214.396 268.956C219.57 264.514 225.167 264.723 231.354 264.626C241.133 264.471 248.058 265.404 257 269.3C260.539 270.841 265.901 272.088 269.69 273.344C272.597 274.307 282.163 278.147 284.677 276.466C284.618 276.28 284.558 276.093 284.498 275.906C281.391 271.252 280.349 259.647 278.072 255.228Z"/><path fill="#FEFEFE" d="M412.9 361.456C413.675 361.554 413.389 361.459 414.044 361.942C414.294 362.775 414.348 363.932 414.002 364.741C409.27 375.789 404.802 387.078 400.043 398.111C397.898 403.084 395.263 407.915 392.874 412.714C391.683 409.853 388.199 400.777 385.89 399.335C377.195 394.381 365.784 389.806 356.181 386.943C349.824 385.048 343.533 378.497 339.25 377.728C333.684 376.73 321.398 381.194 316.394 383.864C311.658 386.391 306.615 392.085 302.085 395.19C291.255 402.6 281.137 410.507 270.144 417.675C268.403 418.81 264.187 422.665 262.645 422.79C261.339 420.662 264.764 413.992 265.754 411.674C268.096 406.054 270.609 397.635 271.507 391.541C272.76 383.038 259.996 380.133 254.26 375.649C249.787 372.154 249.014 371.213 245.315 366.696C260.251 367.319 274.085 376.625 288.55 379.406C295.19 380.283 300.959 377.247 307.202 375.496C314.99 373.313 322.157 371.844 330.379 370.978C338.533 370.122 344.049 374.788 350.696 378.517C362.399 384.94 373.451 385.46 386.038 382.298C398.032 379.286 398.676 377.094 405.34 367.5C406.578 365.718 410.763 362.405 412.9 361.456Z"/><path fill="#FEFEFE" d="M275.914 425.462C286.386 431.658 286.999 433.162 292.562 442.824C299.345 446.341 315.756 447.406 309.092 458.762C298.573 462.176 283.848 456.743 277.541 447.468C274.247 442.625 274.484 431.134 275.914 425.462Z"/><path fill="#FEFEFE" d="M249.079 445.768C255.322 451.044 254.67 456.325 254.604 463.648C253.859 464.776 251.838 467.145 250.78 468.097C248.376 470.26 243.32 477.932 240.03 477.706C237.899 476.754 236.931 474.477 235.741 472.428C231.879 465.582 229.158 459.124 228.874 451.21C230.397 451.405 230.863 451.486 232.315 451.923C234.517 452.587 237.756 455.876 239.707 455.778C242.796 454.61 246.868 448.512 249.079 445.768Z"/><path d="M199.353 304.613C200.77 304.452 203.975 304.144 204.935 305.322C210.682 312.391 197.555 319.849 193.317 325.24C179.895 342.315 182.422 356.636 181.632 376.943C180.596 403.578 171.533 432.64 153.394 452.778C145.916 461.08 134.419 464.979 123.371 465.125C118.087 463.198 116.711 459.049 116.04 453.758C115.075 446.154 115.543 435.912 117.714 428.439C119.226 423.236 124.18 417.045 126.42 411.926C139.076 388.447 151.887 365.093 164.42 341.55C166.08 338.431 168.294 335.097 169.585 331.855C171.047 328.182 171.002 323.604 173.706 320.378C180.4 312.322 188.78 306.109 199.353 304.613Z"/><path d="M382.423 153.504C382.993 153.557 383.9 153.61 384.33 153.963C391.026 159.463 400.312 180.073 402.19 187.669C400.173 189.54 397.413 192.357 395.191 193.782C389.125 197.673 379.109 200.286 372.124 202.174C369.719 215.243 370.584 218.84 371.727 231.74C364.033 232.456 357.368 233.696 349.771 235.081C336.816 237.402 325.443 234.53 329.684 218.904C333.151 206.131 328.077 185.729 337.589 174.627C346.089 164.707 369.37 155.166 382.423 153.504Z"/><path fill="#FEFEFE" d="M352.967 189.924C359.463 189.356 363.782 190.567 367.279 196.313C364.079 198.52 360.46 200.519 356.659 201.41C348.365 202.072 346.717 200.598 342.152 193.918C345.54 192.554 349.495 190.809 352.967 189.924Z"/><path d="M458.295 278.107C464.121 278.835 466.573 281.08 471.617 283.758C481.464 288.985 492.931 294.219 501.56 301.294C493.232 303.058 491.756 304.736 484.778 309.055C476.073 314.442 469.116 320.444 460.987 326.456C464.814 332.132 468.612 337.129 473.022 342.381C475.224 345.003 479.425 348.41 481.043 351.198C480.767 355.079 473.873 361.05 471.23 364.332C468.485 367.741 465.489 370.367 463.139 374.302C460.791 371.401 457.108 368.445 454.96 365.285C443.868 348.967 442.123 333.717 441.871 314.943C443.774 313.52 445.868 312.326 447.713 310.712C455.936 303.522 457.61 288.307 458.295 278.107Z"/><path d="M501.493 391.006C511.773 389.768 512.963 395.34 520.309 396.002C530.286 396.9 536.885 392.63 547.501 393.935C556.99 412.244 549.815 413.985 542.345 430.07C540.459 433.993 537.713 436.861 534.133 439.432C523.907 446.777 511.717 428.283 507.418 420.874C502.971 413.209 499.17 401.078 500.404 392.072C500.495 391.413 500.997 391.265 501.493 391.006Z"/><path fill="#FEFEFE" d="M526.387 410.765C527.521 410.715 529.149 410.548 530.124 411.26C531.638 412.366 531.795 414.772 530.516 416.118L529.482 416.102L524.231 415.895C524.516 413.498 524.226 412.054 526.387 410.765Z"/><path d="M386.236 201.36C397.569 200.712 408.292 201.055 404.396 215.736C402.562 222.645 400.446 224.328 394.683 228.078C390.684 230.228 383.775 232.264 379.668 229.615C379.048 228.677 378.344 226.475 378.337 225.415C378.282 216.802 374.433 203.106 386.236 201.36Z"/><path d="M259.338 224.966C260.259 225.282 261.187 226.213 261.536 227.114C264.652 235.163 257.426 246.671 250.453 250.136C241.484 254.592 233.912 254.698 224.808 251.845L220.919 250.645C221.135 248.761 220.641 248.335 220.99 246.501C227.276 243.21 238.178 240.321 243.064 237.573C248.557 234.484 250.863 229.212 259.338 224.966Z"/><path d="M523.813 364.252C527.437 364.048 531.554 363.883 535.138 364.477C538.034 364.903 542.26 367.264 543.539 370.151C547.303 378.651 547.241 382.713 539.626 387.22C538.046 387.967 536.379 388.512 534.663 388.845C522.945 391.054 518.372 382.674 518.939 372.254C519.15 368.382 519.505 364.945 523.813 364.252Z"/><path d="M460.266 385.549C468.572 385.191 468.628 394.002 468.296 400.103C467.866 408.014 465.97 424.538 459.93 430.185L458.73 430.398C449.363 427.355 452.996 409.815 453.726 402.636C454.396 396.05 454.827 390.045 460.266 385.549Z"/><path d="M226.124 197.774C248.144 196.417 246.394 220.251 237.018 223.163C227.749 224.482 224.704 224.302 219.519 216.338C219.313 212.022 222.186 199.335 226.124 197.774Z"/><path d="M200.345 190.975C203.573 191.025 205.678 191.157 208.781 192.034C209.956 197.001 208.995 201.258 206.841 205.744C204.335 210.964 203.436 213.576 197.438 213.778C193.95 213.316 189.095 206.667 188.859 203.339C188.366 196.372 194.162 191.765 200.345 190.975Z"/><path d="M192.781 283.797C196.364 283.565 196.769 288.51 195.49 290.701C191.031 298.341 182.408 303.812 174.398 307.117C173.232 307.152 172.987 307.177 171.799 306.943C167.817 303.903 172.818 296.065 175.095 293.098C179.707 287.088 185.405 284.657 192.781 283.797Z"/><path d="M351.749 135.56C358.366 135.107 355.215 141.264 353.022 144.292C350.399 147.913 347.448 148.288 343.391 148.816C341.354 148.72 340.115 148.89 338.903 147.045C337.835 141.656 347.281 136.53 351.749 135.56Z"/></svg>