<svg width="24" height="24" viewBox="0 0 24 24" fill="none" xmlns="http://www.w3.org/2000/svg">
<path d="M12.004 0.00475C5.37475 0.00475 0.004 5.38 0.004 12.0047C0.004 17.3095 3.442 21.8058 8.20675 23.392C8.809 23.5053 9.0265 23.134 9.0265 22.813C9.0265 22.528 9.01975 21.7742 9.01525 20.7737C5.6755 21.4967 4.972 19.1605 4.972 19.1605C4.42525 17.7775 3.63625 17.4062 3.63625 17.4062C2.55025 16.6645 3.7225 16.6802 3.7225 16.6802C4.9255 16.762 5.5585 17.914 5.5585 17.914C6.62875 19.75 8.3665 19.219 9.05425 18.91C9.15925 18.1368 9.472 17.605 9.8125 17.3087C7.1485 17.008 4.34725 15.9767 4.34725 11.3785C4.34725 10.0652 4.81225 8.99575 5.581 8.15575C5.44825 7.855 5.04175 6.6325 5.68675 4.9795C5.68675 4.9795 6.691 4.65925 8.98675 6.21025C9.9475 5.944 10.9675 5.81125 11.9868 5.8045C13.0068 5.81125 14.026 5.94475 14.9867 6.21025C17.269 4.65925 18.2725 4.9795 18.2725 4.9795C18.9167 6.6325 18.5102 7.85425 18.3932 8.15575C19.1545 8.99575 19.6195 10.066 19.6195 11.3785C19.6195 15.9872 16.8145 17.0035 14.1475 17.2967C14.5645 17.656 14.9552 18.3947 14.9552 19.516C14.9552 21.121 14.9403 22.414 14.9403 22.8047C14.9403 23.1167 15.1502 23.4918 15.7682 23.371C20.5682 21.8013 24.0025 17.3013 24.0025 12.004C24.0025 5.37925 18.6317 0.00400001 12.0025 0.00400001L12.004 0.00475Z" fill="black" stroke="black" stroke-width="0.008"/>
</svg>
