<svg width="24" height="24" viewBox="0 0 24 24" fill="none" xmlns="http://www.w3.org/2000/svg">
<path d="M11.9985 0C8.73675 0 8.33025 0.01575 7.05375 0.06975C5.772 0.13275 4.905 0.3315 4.14 0.6285C3.351 0.9375 2.679 1.34775 2.01525 2.01525C1.347 2.679 0.933 3.351 0.6285 4.14C0.3315 4.905 0.13275 5.772 0.06975 7.05375C0.012 8.331 0 8.73675 0 11.9985C0 15.2603 0.01575 15.6668 0.06975 16.9433C0.13275 18.2213 0.3315 19.092 0.6285 19.857C0.9375 20.646 1.34775 21.318 2.01525 21.9818C2.679 22.65 3.351 23.064 4.14 23.3685C4.905 23.6618 5.77575 23.8643 7.05375 23.9273C8.331 23.985 8.73675 23.997 11.9985 23.997C15.2603 23.997 15.6668 23.9813 16.9433 23.9273C18.2213 23.8643 19.092 23.661 19.857 23.3685C20.646 23.0595 21.318 22.6493 21.9818 21.9818C22.65 21.318 23.064 20.6498 23.3685 19.857C23.6618 19.092 23.8643 18.2213 23.9273 16.9433C23.985 15.666 23.997 15.2603 23.997 11.9985C23.997 8.73675 23.9813 8.33025 23.9273 7.05375C23.8643 5.77575 23.661 4.9005 23.3685 4.14C23.0595 3.351 22.6493 2.679 21.9818 2.01525C21.318 1.347 20.6498 0.933 19.857 0.6285C19.092 0.3315 18.2213 0.13275 16.9433 0.06975C15.666 0.012 15.2603 0 11.9985 0ZM11.9985 2.16C15.2018 2.16 15.5843 2.17575 16.8503 2.22975C18.018 2.2845 18.654 2.4795 19.0763 2.6445C19.6395 2.86275 20.0333 3.12075 20.4593 3.54225C20.877 3.96 21.135 4.35825 21.3533 4.9215C21.5183 5.34375 21.7133 5.97975 21.768 7.1475C21.822 8.4135 21.8378 8.79675 21.8378 11.9993C21.8378 15.2018 21.822 15.585 21.7635 16.851C21.7005 18.0188 21.5055 18.6548 21.3413 19.077C21.114 19.6403 20.8605 20.034 20.442 20.46C20.0198 20.8778 19.6178 21.1358 19.059 21.354C18.642 21.519 17.997 21.714 16.8248 21.7688C15.552 21.8228 15.177 21.8385 11.9655 21.8385C8.754 21.8385 8.37975 21.8228 7.1055 21.7643C5.93775 21.7013 5.2935 21.5063 4.87125 21.342C4.30125 21.1148 3.9105 20.8613 3.492 20.4428C3.06975 20.0205 2.80125 19.6185 2.59425 19.0598C2.42625 18.6428 2.23425 17.9978 2.172 16.8255C2.12925 15.5678 2.109 15.1778 2.109 11.9813C2.109 8.78625 2.12925 8.3955 2.172 7.122C2.23425 5.94975 2.42625 5.30625 2.59425 4.88775C2.80125 4.317 3.0705 3.927 3.492 3.50475C3.90975 3.087 4.30125 2.817 4.87125 2.6055C5.2935 2.44125 5.922 2.24625 7.09425 2.18775C8.367 2.142 8.742 2.1255 11.949 2.1255L11.9985 2.16ZM11.9985 5.84025C8.59275 5.84025 5.83875 8.598 5.83875 12C5.83875 15.4058 8.5965 18.1598 11.9985 18.1598C15.4043 18.1598 18.1583 15.402 18.1583 12C18.1583 8.59425 15.4005 5.84025 11.9985 5.84025ZM11.9985 15.9998C9.7875 15.9998 7.99875 14.211 7.99875 12C7.99875 9.789 9.7875 8.00025 11.9985 8.00025C14.2095 8.00025 15.9983 9.789 15.9983 12C15.9983 14.211 14.2095 15.9998 11.9985 15.9998ZM19.8465 5.59425C19.8465 6.3915 19.1978 7.035 18.4043 7.035C17.607 7.035 16.9635 6.39075 16.9635 5.59425C16.9635 4.8015 17.6115 4.1565 18.4043 4.1565C19.197 4.1565 19.8465 4.8015 19.8465 5.59425Z" fill="black"/>
</svg>
