<svg width="24" height="24" viewBox="0 0 24 24" fill="none" xmlns="http://www.w3.org/2000/svg">
<path d="M14.4503 0C14.7242 0.304686 14.9209 0.67441 15.023 1.07635C15.125 1.47828 15.1293 1.89999 15.0354 2.30404C14.827 3.21197 14.3862 4.04557 13.759 4.71779C13.2664 5.25472 12.7328 5.75003 12.1634 6.19896C11.4631 6.69305 10.8663 7.32734 10.4084 8.06413C10.2202 8.36117 10.1028 8.69991 10.0659 9.05267C10.0289 9.40544 10.0734 9.76223 10.1956 10.0939C10.5679 11.2459 11.5252 12.0688 12.0039 13.1111C11.472 12.6722 10.9402 12.1236 10.4084 11.6299C9.85748 11.085 9.39111 10.4559 9.02559 9.76473C8.78995 9.2711 8.73335 8.70678 8.86604 8.17385C9.07212 7.64312 9.40075 7.17233 9.82335 6.8024C10.887 5.76009 12.2166 4.99208 13.2803 3.89492C13.8842 3.32221 14.3098 2.57768 14.5035 1.75546C14.6195 1.1741 14.6013 0.572758 14.4503 0Z" fill="black"/>
<path d="M13.5994 6.63782C14.7699 5.83269 16.0649 5.23905 17.4286 4.88237C16.3188 5.5116 15.2683 6.24622 14.2908 7.07669C13.9519 7.37943 13.6799 7.75355 13.493 8.17385C13.4044 8.51844 13.423 8.88306 13.5462 9.21615C13.8522 9.74907 14.1896 10.262 14.5567 10.7522C14.6899 10.9715 14.7692 11.2211 14.7878 11.4792C14.8063 11.7373 14.7635 11.9962 14.6631 12.2333C14.3152 12.9301 13.7544 13.4892 13.0676 13.8242C13.0144 13.8791 12.9612 13.9888 12.8548 13.9888C13.0711 13.8081 13.2489 13.5833 13.377 13.3284C13.5052 13.0735 13.5809 12.7941 13.5994 12.5076C13.5546 12.0723 13.367 11.6659 13.0676 11.3556C12.4825 10.6425 11.9507 9.76473 12.0571 8.887C12.1509 8.42305 12.3362 7.98397 12.6016 7.59704C12.8669 7.21011 13.2065 6.88361 13.5994 6.63782Z" fill="black"/>
<path d="M17.6414 13.3854C17.9326 13.1545 18.285 13.0205 18.6519 13.0014C18.9699 12.9401 19.2972 12.9527 19.6099 13.0381C19.9227 13.1235 20.2131 13.2796 20.4601 13.4951C20.6505 13.6735 20.7978 13.8955 20.8901 14.1431C20.9825 14.3908 21.0173 14.6573 20.992 14.9214C20.8276 15.5047 20.4934 16.0217 20.0346 16.4026C19.1587 17.0349 18.1611 17.4652 17.1095 17.6643L17.3223 17.4997C18.1356 17.1362 18.8618 16.5932 19.4496 15.9088C19.6478 15.7247 19.7997 15.4938 19.8924 15.2358C19.985 14.9778 20.0156 14.7005 19.9815 14.4277C19.8914 14.1034 19.7038 13.8171 19.4457 13.61C19.1876 13.403 18.8723 13.2859 18.5455 13.2756C18.2403 13.2583 17.9344 13.2955 17.6414 13.3854Z" fill="black"/>
<path d="M5.72819 13.9339C6.82007 13.4515 7.99734 13.2086 9.18514 13.2208C8.47324 13.3644 7.778 13.5851 7.11097 13.8791C6.93869 13.9391 6.78959 14.0544 6.6855 14.2082C6.6855 14.3179 6.79187 14.3728 6.89823 14.4277C7.31255 14.5581 7.7417 14.6319 8.17465 14.6471C9.69863 14.7386 11.2269 14.7202 12.7485 14.5922C14.245 14.5091 15.7363 14.3443 17.2159 14.0985C16.8725 14.2073 16.549 14.3741 16.2586 14.5922C16.0895 14.6721 15.9105 14.7275 15.7268 14.7568C13.902 15.1049 12.0513 15.2885 10.1956 15.3054H8.0151C7.22604 15.2805 6.44171 15.1702 5.67501 14.9762C5.44034 14.9532 5.21789 14.8576 5.0368 14.702C5.01136 14.6921 4.98877 14.6758 4.97117 14.6545C4.95357 14.6331 4.94154 14.6075 4.93621 14.5801C4.93089 14.5526 4.93244 14.5242 4.94074 14.4975C4.94904 14.4709 4.96379 14.4468 4.98361 14.4277C5.19946 14.2295 5.45307 14.08 5.72819 13.9888V13.9339Z" fill="black"/>
<path d="M7.11097 16.4574C7.43696 16.2208 7.7955 16.0358 8.17465 15.9088C8.06828 16.0734 7.85554 16.1831 7.85554 16.4026C7.86729 16.4624 7.89272 16.5186 7.92972 16.5663C7.96672 16.614 8.01422 16.6519 8.06828 16.6768L8.70648 16.8414C9.85492 16.961 11.01 16.9976 12.1634 16.9511C13.1739 16.8963 14.2376 16.7317 15.3013 16.5671C15.5924 16.8121 15.9145 17.0151 16.2586 17.1706C15.0024 17.5008 13.7215 17.721 12.4294 17.8289C11.2054 17.902 9.97751 17.8653 8.75967 17.7191C8.26597 17.6315 7.784 17.4842 7.3237 17.2803C7.13845 17.215 6.9856 17.077 6.89823 16.8963C6.87848 16.809 6.88893 16.7174 6.92778 16.6372C6.96664 16.5571 7.03144 16.4935 7.11097 16.4574Z" fill="black"/>
<path d="M7.80236 18.9809C8.09487 18.7794 8.41864 18.6309 8.75967 18.542C8.6533 18.6517 8.44057 18.8163 8.54693 18.9809C8.74755 19.138 8.98732 19.2331 9.23832 19.2552C10.2444 19.3739 11.2581 19.4106 12.2698 19.3649C13.0209 19.3091 13.7673 19.1992 14.5035 19.0357C14.9248 19.2994 15.3702 19.5199 15.8331 19.694C15.1321 19.996 14.4008 20.2168 13.6526 20.3523C12.3701 20.5895 11.0585 20.608 9.77016 20.4072C9.20021 20.3264 8.64477 20.16 8.12146 19.9135C8.01318 19.8693 7.91482 19.8027 7.83249 19.7178C7.75016 19.6329 7.6856 19.5314 7.64281 19.4197C7.62647 19.3385 7.63279 19.2542 7.66103 19.1765C7.68927 19.0988 7.73827 19.031 7.80236 18.9809Z" fill="black"/>
<path d="M4.50496 20.6266C5.05388 20.4327 5.62712 20.3219 6.20684 20.2975C6.42527 20.2743 6.64572 20.3122 6.84505 20.4072C6.1614 20.4602 5.49368 20.6463 4.87725 20.9558C4.7958 20.9796 4.72033 21.0213 4.65606 21.0782C4.59178 21.135 4.54023 21.2055 4.50496 21.2849C4.50496 21.4495 4.7177 21.5044 4.87725 21.5592C5.73467 21.8602 6.63107 22.0267 7.53644 22.0529C10.246 22.2541 12.9668 22.2357 15.6736 21.9981C16.6949 21.9141 17.7084 21.749 18.7051 21.5044C19.0244 21.4161 19.3171 21.2463 19.556 21.0106C19.5992 20.929 19.6123 20.834 19.5927 20.7432C19.5732 20.6523 19.5223 20.572 19.4496 20.5169C19.6624 20.6266 19.9815 20.7363 19.9283 21.0106C19.7837 21.2771 19.5599 21.4886 19.2901 21.6141C18.5177 21.9345 17.7158 22.1734 16.8968 22.3272C14.4603 22.7933 11.9787 22.9591 9.50424 22.8209C7.65037 22.7716 5.80213 22.5883 3.97312 22.2724C3.63646 22.2622 3.31497 22.1257 3.069 21.8884C3.03953 21.8457 3.01885 21.7972 3.00823 21.7459C2.9976 21.6947 2.99727 21.6417 3.00723 21.5904C3.01719 21.539 3.03725 21.4902 3.06617 21.4471C3.09508 21.404 3.13224 21.3675 3.17536 21.3398C3.5709 21.0175 4.02206 20.7756 4.50496 20.6266Z" fill="black"/>
<path d="M19.3433 22.6564C19.9469 22.4876 20.5089 22.1884 20.992 21.7786C20.9388 22.2724 20.4601 22.6015 20.0346 22.8209C19.1758 23.2345 18.2614 23.5119 17.3223 23.6438C15.3333 23.9463 13.3213 24.0565 11.3125 23.973C9.94029 24.0018 8.56864 23.8916 7.21734 23.6438C6.87908 23.574 6.55516 23.444 6.26003 23.2598C7.45359 23.4806 8.66392 23.5908 9.87653 23.589C11.8823 23.6538 13.89 23.5805 15.8863 23.3695C17.0535 23.2166 18.2088 22.9782 19.3433 22.6564Z" fill="black"/>
</svg>
