<svg width="24" height="24" viewBox="0 0 24 24" fill="none" xmlns="http://www.w3.org/2000/svg">
<path d="M13.625 0C15.0273 3.05447 8.59766 4.9261 8 7.4721C7.45312 9.80893 11.8086 12.5497 11.8125 12.5497C11.1484 11.5832 10.6641 10.7682 10 9.26079C8.875 6.71479 16.8555 4.41763 13.625 0ZM17.875 4.24092C17.875 4.24092 12.2539 4.56909 11.9688 7.96255C11.8398 9.47355 13.4531 10.2669 13.5 11.3668C13.5391 12.2648 12.5312 13.0113 12.5312 13.0113C12.5312 13.0113 14.3398 12.7083 14.9062 11.338C15.5312 9.81615 13.6875 8.77755 13.875 7.55865C14.0547 6.39384 17.875 4.24092 17.875 4.24092ZM19.25 12.0592C18.6602 12.034 17.9961 12.2359 17.4062 12.6362C18.5703 12.3982 19.5625 13.0726 19.5625 13.8479C19.5625 15.5861 16.875 17.2233 16.875 17.2233C16.875 17.2233 21.0312 16.7942 21.0312 13.9345C21.0312 12.7552 20.2305 12.1025 19.25 12.0592ZM8.21875 12.0881C6.76953 12.1349 3.875 12.3549 3.875 13.3863C3.875 14.8216 10.6172 14.9334 15.4375 14.0499C15.4375 14.0499 16.75 13.206 17.0938 12.8959C13.9336 13.5017 6.71875 13.5955 6.71875 13.069C6.71875 12.5857 9.03125 12.0881 9.03125 12.0881C9.03125 12.0881 8.70312 12.0736 8.21875 12.0881ZM7.78125 14.7422C6.98828 14.7422 5.8125 15.312 5.8125 15.8674C5.8125 16.9853 11.7812 17.8436 16.1875 16.2136L14.6562 15.3481C11.668 16.2497 6.14844 15.9503 7.78125 14.7422ZM8.53125 17.2522C7.44922 17.2522 6.75 17.8833 6.75 18.3485C6.75 19.7801 13.2148 19.9208 15.7812 18.4639L14.1562 17.483C12.2422 18.2439 7.42578 18.3557 8.53125 17.2522ZM4.90625 18.5504C3.14062 18.518 2 19.2572 2 19.8775C2 23.1772 20.0938 23.0185 20.0938 19.6467C20.0938 19.0877 19.3789 18.8209 19.125 18.6947C20.6016 21.9186 4.34375 21.6662 4.34375 19.7621C4.34375 19.3294 5.54688 18.8966 6.65625 19.0986L5.71875 18.6081C5.44141 18.5685 5.16016 18.554 4.90625 18.5504ZM22 20.7719C19.25 23.2277 12.2891 24.1076 5.28125 22.5894C12.2891 25.2941 21.9648 23.7903 22 20.7719Z" fill="black"/>
</svg>
