<svg width="24" height="24" viewBox="0 0 24 24" fill="none" xmlns="http://www.w3.org/2000/svg">
<path d="M5.87395 0H18.1247C18.1796 0.0455952 18.55 0.0759652 18.665 0.0999197C19.3575 0.244197 20.0155 0.477834 20.6364 0.826903C22.3008 1.76753 23.482 3.37655 23.8808 5.24625C23.9194 5.43431 23.9487 5.63222 23.9615 5.82375C23.9631 5.84794 23.9841 5.86894 24 5.88473V18.1165C23.9952 18.1224 23.9902 18.1282 23.9855 18.1342C23.9522 18.1775 23.9175 18.5477 23.9018 18.6407C23.8692 18.8344 23.8 19.1583 23.7356 19.3367C23.7036 19.4252 23.6639 19.5106 23.6325 19.5993C23.5901 19.7192 23.5552 19.8437 23.506 19.961C23.3327 20.3745 23.0925 20.7958 22.8405 21.1673C22.7293 21.3312 22.6021 21.5076 22.471 21.6559C22.3544 21.7877 22.2229 21.9095 22.0985 22.0341C21.9522 22.1807 21.8081 22.3396 21.6518 22.475C21.1983 22.868 20.5112 23.2806 19.9571 23.5124C19.8335 23.5641 19.7027 23.6029 19.5765 23.6486C19.3132 23.7441 19.0381 23.8393 18.7619 23.8915C18.6397 23.9145 18.5132 23.93 18.3895 23.9429C18.3212 23.95 18.2348 23.9473 18.1704 23.9679C18.1508 23.9742 18.138 23.9859 18.1237 24H5.87592C5.82267 23.9538 5.70042 23.956 5.62697 23.9461C4.43405 23.7853 3.2842 23.2445 2.35623 22.4845C2.12351 22.2586 1.90466 22.049 1.6782 21.8137C1.18184 21.2979 0.804558 20.6399 0.504638 19.9935C0.454189 19.8848 0.429632 19.7687 0.386421 19.6645C0.221288 19.2663 0.125199 18.8446 0.0615637 18.4195C0.0472472 18.3248 0.0622988 18.1906 0 18.1229V5.87695C0.00804839 5.86805 0.0293485 5.84691 0.030739 5.83533C0.0522623 5.65612 0.0718589 5.48194 0.106446 5.30414C0.447462 3.62836 1.41527 2.14596 2.81226 1.15959C3.7194 0.530822 4.77136 0.155432 5.85694 0.0136678C5.86261 0.00911184 5.86828 0.00455592 5.87395 0ZM17.6865 21.8429C17.79 21.8428 18.0509 21.7873 18.1693 21.7656C18.9361 21.6286 19.6519 21.2873 20.2411 20.7778C21.1696 19.9686 21.6947 18.9943 21.8317 17.7723C21.8523 17.5876 21.8447 17.3896 21.8447 17.2036L21.8445 16.3453L21.8441 14.216L21.8444 6.49078C21.844 6.2317 21.8128 6.09469 21.7688 5.84255C21.6163 4.96631 21.1989 4.14131 20.5595 3.52041C20.4703 3.43377 20.3527 3.30535 20.257 3.22503C19.7652 2.81241 19.211 2.49945 18.59 2.32957C18.3407 2.26135 18.0047 2.19956 17.7507 2.17037C17.583 2.15111 17.2837 2.15948 17.1091 2.1595L16.0691 2.16006L13.8444 2.16005L6.58584 2.15988L6.35705 2.16146C6.1598 2.16664 5.91155 2.22348 5.71514 2.26086C4.74389 2.4457 3.89959 2.97672 3.24836 3.71259C2.68685 4.34708 2.3355 5.12166 2.20881 5.95725C2.19264 6.06389 2.1702 6.1733 2.15985 6.28116C2.15275 6.42703 2.15636 6.59405 2.15642 6.74231L2.15672 7.59952L2.15704 10.1245L2.15718 15.1504L2.15659 16.7835C2.15638 17.069 2.15469 17.3626 2.15742 17.6471C2.15881 17.7923 2.21844 18.1117 2.24881 18.261C2.39376 18.9897 2.72252 19.6693 3.20389 20.2353C3.33432 20.388 3.58173 20.6324 3.73052 20.7641C4.31977 21.2856 5.07141 21.6383 5.8455 21.7711C6.20977 21.8375 6.38869 21.8444 6.75539 21.8441L7.56605 21.8432L9.7687 21.8431L17.6865 21.8429Z" fill="black"/>
<path d="M15.2605 9.28509C17.5627 9.12675 18.9985 10.1463 19.3397 12.4431C19.4033 12.8714 19.4541 13.2897 19.4542 13.7234L19.4539 14.3734L19.4537 16.4263L19.4543 18.2394L19.4552 18.8034C19.4554 18.9945 19.4876 19.1976 19.348 19.3475C19.2544 19.4479 19.1956 19.4949 19.0571 19.5001C18.874 19.507 18.6924 19.5047 18.5096 19.5044L17.5619 19.5035L16.9705 19.5063C16.7555 19.5077 16.4967 19.5386 16.3289 19.3806C16.1254 19.1889 16.1707 18.8273 16.1713 18.5699L16.1727 17.6424L16.1723 15.2363C16.1725 14.8019 16.1897 14.3417 16.1709 13.9102C16.127 12.9049 15.6186 11.9739 14.4859 12.0506C13.8685 12.0924 13.6699 12.2493 13.2629 12.6853C13.2176 12.7335 13.1719 12.8369 13.1404 12.8965C12.9215 13.3109 12.7973 13.7964 12.7965 14.2656C12.7965 14.3387 12.7966 14.4114 12.7967 14.4843L12.798 15.2985L12.7972 17.9879L12.7985 18.6714C12.7992 18.8045 12.8064 18.9712 12.7903 19.095C12.7706 19.2454 12.6248 19.4826 12.4627 19.4962C12.3181 19.5083 12.1483 19.5043 12.0036 19.5043L11.1458 19.504L10.4188 19.5052C10.0884 19.5067 9.65292 19.5724 9.60862 19.0892C9.59737 18.9667 9.60961 18.8238 9.60966 18.699L9.60984 17.8201L9.60998 15.0757L9.60994 11.5492L9.60891 10.4763C9.60806 10.274 9.60562 10.0683 9.60867 9.8663C9.61022 9.76237 9.63262 9.67298 9.70223 9.59386C9.78891 9.49514 9.91078 9.4343 10.0417 9.42427C10.1739 9.41447 10.3668 9.42103 10.5042 9.42098L11.3693 9.42066L11.9985 9.4207C12.1177 9.42075 12.2417 9.41934 12.36 9.43003C12.5219 9.4447 12.7532 9.6083 12.7805 9.77798C12.824 10.0493 12.7868 10.3409 12.8049 10.6195C12.8888 10.5232 12.9596 10.4121 13.0479 10.3115C13.5137 9.78108 13.9752 9.54937 14.6471 9.39286C14.8334 9.3495 15.0921 9.33005 15.2407 9.29053L15.2605 9.28509Z" fill="black"/>
<path d="M5.45156 9.42581C5.86959 9.4027 6.36084 9.43158 6.78713 9.42094C7.08464 9.43294 7.39383 9.40186 7.6898 9.42834C8.31366 9.48422 8.20514 10.0695 8.20392 10.5086L8.20355 11.5387V14.8274L8.20364 17.6367L8.20392 18.4957C8.20481 18.8038 8.26739 19.2165 7.98412 19.4167C7.91545 19.4652 7.86281 19.4962 7.7767 19.5015C7.01433 19.5302 6.22795 19.4812 5.46497 19.5062C5.29111 19.5119 5.04952 19.3586 5.03109 19.2127C4.99894 18.9572 5.01609 18.5467 5.01623 18.2903L5.01637 16.4504V12.0365L5.01619 10.5794C5.01614 10.3584 5.01441 10.1367 5.01398 9.91584C5.01384 9.84028 5.03508 9.73917 5.07445 9.67491C5.17791 9.50606 5.27808 9.47091 5.45156 9.42581Z" fill="black"/>
<path d="M6.25341 4.51049C7.3815 4.31994 8.44955 5.0827 8.63531 6.21159C8.82113 7.34048 8.05383 8.4053 6.92419 8.58628C5.80125 8.76623 4.74417 8.00452 4.55949 6.88233C4.37483 5.76019 5.13206 4.69992 6.25341 4.51049Z" fill="black"/>
</svg>
