<?xml version="1.0" encoding="utf-8" ?><svg xmlns="http://www.w3.org/2000/svg" xmlns:xlink="http://www.w3.org/1999/xlink" width="512" height="512" viewBox="0 0 512 512"><path d="M125.311 0L386.66 0C387.832 0.972698 395.734 1.62059 398.187 2.13162C412.961 5.20953 426.998 10.1938 440.244 17.6406C475.75 37.7072 500.949 72.033 509.457 111.92C510.28 115.932 510.905 120.154 511.179 124.24C511.213 124.756 511.661 125.204 512 125.541L512 386.486C511.897 386.612 511.79 386.734 511.691 386.863C510.98 387.786 510.241 395.684 509.906 397.668C509.209 401.8 507.734 408.71 506.359 412.517C505.677 414.404 504.829 416.226 504.16 418.119C503.255 420.677 502.511 423.333 501.462 425.835C497.765 434.655 492.64 443.643 487.263 451.569C484.892 455.065 482.179 458.829 479.381 461.993C476.893 464.805 474.088 467.402 471.435 470.061C468.313 473.189 465.239 476.578 461.905 479.466C452.231 487.85 437.573 496.652 425.752 501.597C423.114 502.7 420.324 503.529 417.632 504.504C412.014 506.54 406.147 508.572 400.254 509.685C397.647 510.177 394.949 510.506 392.31 510.781C390.852 510.933 389.01 510.875 387.636 511.316C387.218 511.45 386.943 511.699 386.638 512L125.353 512C124.217 511.015 121.609 511.061 120.042 510.85C94.593 507.419 70.063 495.882 50.2662 479.669C45.3015 474.851 40.6328 470.379 35.8016 465.359C25.2126 454.356 17.1639 440.317 10.7656 426.529C9.68937 424.209 9.16548 421.732 8.24365 419.509C4.7208 411.015 2.67091 402.018 1.31336 392.949C1.00794 390.928 1.32904 388.067 0 386.621L0 125.375C0.171699 125.185 0.626101 124.734 0.655765 124.487C1.11493 120.664 1.53299 116.948 2.27085 113.155C9.54586 77.405 30.1924 45.7804 59.9948 24.738C79.3471 11.3242 101.789 3.31588 124.948 0.291579C125.069 0.194386 125.19 0.0971929 125.311 0ZM377.312 465.982C379.52 465.98 385.085 464.796 387.612 464.333C403.971 461.41 419.24 454.13 431.81 443.259C451.618 425.997 462.821 405.212 465.742 379.142C466.183 375.202 466.02 370.978 466.021 367.01L466.016 348.699L466.007 303.275L466.014 138.47C466.006 132.943 465.339 130.02 464.402 124.641C461.147 105.948 452.244 88.348 438.602 75.1021C436.699 73.2537 434.192 70.5141 432.15 68.8006C421.658 59.9981 409.834 53.3215 396.587 49.6974C391.268 48.2422 384.101 46.9239 378.682 46.3013C375.104 45.8903 368.72 46.0689 364.995 46.0693L342.807 46.0812L295.348 46.081L140.498 46.0775L135.617 46.1112C131.409 46.2216 126.113 47.4342 121.923 48.2316C101.203 52.1749 83.1912 63.5033 69.2983 79.2019C57.3194 92.7378 49.8241 109.262 47.1213 127.088C46.7763 129.363 46.2976 131.697 46.0768 133.998C45.9254 137.11 46.0024 140.673 46.0037 143.836L46.01 162.123L46.0168 215.989L46.0199 323.209L46.0072 358.047C46.0027 364.138 45.9668 370.402 46.0249 376.471C46.0546 379.568 47.3268 386.384 47.9747 389.567C51.0669 405.114 58.0804 419.612 68.3496 431.686C71.1322 434.943 76.4103 440.158 79.5845 442.967C92.1551 454.092 108.19 461.616 124.704 464.45C132.475 465.867 136.292 466.014 144.115 466.007L161.409 465.989L208.399 465.987L377.312 465.982Z"/><path d="M325.557 198.082C374.671 194.704 405.301 216.455 412.58 265.453C413.937 274.589 415.02 283.513 415.024 292.765L415.017 306.633L415.012 350.428L415.026 389.107L415.045 401.14C415.049 405.217 415.736 409.549 412.758 412.746C410.76 414.889 409.506 415.891 406.551 416.003C402.646 416.15 398.772 416.1 394.872 416.094L374.653 416.075L362.037 416.134C357.451 416.164 351.93 416.824 348.35 413.453C344.008 409.363 344.974 401.649 344.987 396.157L345.018 376.371L345.01 325.042C345.014 315.773 345.381 305.957 344.979 296.75C344.042 275.304 333.197 255.444 309.032 257.08C295.861 257.972 291.624 261.318 282.942 270.619C281.975 271.647 281.001 273.853 280.329 275.125C275.659 283.966 273.009 294.323 272.993 304.332C272.991 305.892 272.995 307.443 272.997 308.998L273.023 326.367L273.008 383.741L273.035 398.324C273.049 401.162 273.204 404.72 272.859 407.36C272.44 410.569 269.33 415.629 265.871 415.919C262.787 416.177 259.163 416.091 256.076 416.091L237.777 416.086L222.268 416.112C215.22 416.143 205.929 417.544 204.984 407.236C204.744 404.623 205.005 401.575 205.006 398.911L205.01 380.162L205.013 321.614L205.012 246.382L204.99 223.494C204.972 219.179 204.92 214.79 204.985 210.481C205.018 208.264 205.496 206.357 206.981 204.669C208.83 202.563 211.43 201.265 214.224 201.051C217.044 200.842 221.159 200.982 224.09 200.981L242.546 200.974L255.969 200.975C258.512 200.976 261.157 200.946 263.679 201.174C267.134 201.487 272.069 204.977 272.65 208.597C273.578 214.386 272.786 220.605 273.172 226.55C274.961 224.494 276.472 222.124 278.355 219.979C288.293 208.663 298.138 203.72 312.472 200.381C316.445 199.456 321.965 199.041 325.134 198.198L325.557 198.082Z"/><path d="M116.3 201.084C125.218 200.591 135.698 201.207 144.792 200.98C151.139 201.236 157.735 200.573 164.049 201.138C177.358 202.33 175.043 214.816 175.017 224.183L175.009 246.16L175.009 316.317L175.011 376.25L175.017 394.574C175.036 401.148 176.371 409.951 170.328 414.222C168.863 415.257 167.74 415.92 165.903 416.033C149.639 416.645 132.863 415.598 116.586 416.132C112.877 416.253 107.723 412.983 107.33 409.87C106.644 404.421 107.01 395.664 107.013 390.193L107.016 350.942L107.016 256.779L107.012 225.694C107.011 220.98 106.974 216.249 106.965 211.538C106.962 209.926 107.415 207.769 108.255 206.398C110.462 202.796 112.599 202.046 116.3 201.084Z"/><path d="M133.406 96.2238C157.472 92.1588 180.257 108.431 184.22 132.514C188.184 156.597 171.815 179.313 147.716 183.174C123.76 187.013 101.209 170.763 97.2692 146.823C93.3296 122.884 109.484 100.265 133.406 96.2238Z"/></svg>