<svg width="24" height="24" viewBox="0 0 24 24" fill="none" xmlns="http://www.w3.org/2000/svg">
<path d="M12.0096 9.83362C12.4217 9.83364 12.8246 9.95847 13.1675 10.1924C13.5104 10.4263 13.7781 10.7588 13.9368 11.1481C14.0955 11.5374 14.1381 11.9661 14.0594 12.3801C13.9806 12.7942 13.7839 13.1751 13.494 13.475C13.2042 13.7749 12.8342 13.9803 12.4305 14.0653C12.0269 14.1504 11.6077 14.1113 11.2257 13.953C10.8438 13.7947 10.5161 13.5242 10.2839 13.1757C10.0518 12.8272 9.92558 12.4161 9.92117 11.9943C9.9197 11.712 9.97255 11.4323 10.0767 11.1709C10.1809 10.9096 10.3343 10.6718 10.5282 10.4712C10.7221 10.2706 10.9528 10.111 11.207 10.0016C11.4611 9.89219 11.7339 9.83512 12.0096 9.83362ZM6.83881 21.14C7.54239 21.5744 9.0724 20.9113 10.8593 19.1965C10.2621 18.5018 9.69922 17.7768 9.17292 17.0244C8.27213 16.9211 7.37741 16.7685 6.4926 16.5671C5.92303 19.0136 6.13522 20.6941 6.83881 21.14ZM7.63173 14.5779L7.30786 13.9949C7.18161 14.316 7.07348 14.6443 6.98399 14.9781C7.28553 15.0467 7.62057 15.1038 7.96677 15.161L7.63173 14.5779ZM14.9356 13.7091L15.8402 11.9943L14.9356 10.2795C14.6006 9.67357 14.2432 9.13626 13.9193 8.59895C13.3162 8.56466 12.6797 8.56466 12.0096 8.56466C11.3395 8.56466 10.7029 8.56466 10.0999 8.56466C9.77599 9.10196 9.41861 9.63927 9.08357 10.2452L8.17896 11.9943L9.08357 13.7091C9.41861 14.315 9.77599 14.8523 10.0999 15.3896C10.7029 15.3896 11.3395 15.3896 12.0096 15.3896C12.6797 15.3896 13.3162 15.3896 13.9193 15.3896C14.2432 14.8523 14.6006 14.315 14.9356 13.7091ZM12.0096 6.02673C11.7974 6.27824 11.574 6.54117 11.3507 6.84984H12.6685C12.4451 6.54117 12.2218 6.27824 12.0096 6.02673ZM12.0096 17.9618C12.2218 17.7103 12.4451 17.4474 12.6685 17.1387H11.3507C11.574 17.4474 11.7974 17.7103 12.0096 17.9618ZM17.1692 2.84861C16.4768 2.41419 14.9356 3.07725 13.1599 4.79206C13.7571 5.48679 14.3199 6.21174 14.8463 6.96416C15.7462 7.05233 16.6409 7.18971 17.5266 7.37572C18.0961 4.92925 17.8839 3.24873 17.1692 2.80288M16.3874 9.3649L16.7113 9.94794C16.8376 9.62683 16.9457 9.29857 17.0352 8.96478C16.7336 8.89619 16.3986 8.83903 16.0524 8.78186L16.3874 9.3649ZM18.0068 1.36244C19.6485 2.32273 19.8272 4.84922 19.1236 7.7987C21.9603 8.65611 24.004 10.0851 24.004 12.0057C24.004 13.9263 21.9603 15.3553 19.1236 16.2127C19.816 19.1622 19.6373 21.6887 18.0068 22.649C16.3763 23.6093 14.1538 22.5118 12.0096 20.4197C9.86533 22.5118 7.6429 23.6093 6.00121 22.649C4.35951 21.6887 4.19199 19.2194 4.88441 16.2127C2.04774 15.3553 0.004 13.9263 0.004 12.0057C0.004 10.0851 2.04774 8.64468 4.88441 7.78727C4.19199 4.83779 4.37068 2.3113 6.00121 1.351C7.63173 0.390707 9.86533 1.48819 12.0096 3.58026C14.1538 1.48819 16.3763 0.390707 18.0068 1.351M17.6829 11.9943C18.0708 12.8359 18.4138 13.6983 18.7104 14.5779C21.0557 13.8577 22.3735 12.8288 22.3735 11.9943C22.3735 11.1597 21.0221 10.1309 18.7104 9.41063C18.4138 10.2902 18.0708 11.1527 17.6829 11.9943ZM6.33625 11.9943C5.94838 11.1527 5.60539 10.2902 5.30879 9.41063C2.96352 10.1309 1.64569 11.1597 1.64569 11.9943C1.64569 12.8288 2.99702 13.8577 5.30879 14.5779C5.60539 13.6983 5.94838 12.8359 6.33625 11.9943ZM16.3874 14.5779L16.0524 15.161C16.3986 15.161 16.7336 15.0467 17.0352 14.9781C16.9457 14.6443 16.8376 14.316 16.7113 13.9949L16.3874 14.5779ZM13.1264 19.1965C14.9021 20.9113 16.4768 21.5744 17.1357 21.14C17.7946 20.7055 18.0626 19.0593 17.4931 16.5671C16.6074 16.7531 15.7127 16.8905 14.8127 16.9787C14.2877 17.7467 13.7248 18.4869 13.1264 19.1965ZM7.63173 9.41063L7.96677 8.82759C7.62057 8.82759 7.28553 8.94192 6.98399 9.01051C7.07348 9.3443 7.18161 9.67256 7.30786 9.99367L7.63173 9.41063ZM10.8928 4.79206C9.08357 3.07725 7.54239 2.41419 6.83881 2.84861C6.13522 3.28303 5.92303 4.92925 6.4926 7.42145C7.37823 7.23544 8.27295 7.09805 9.17292 7.00989C9.70888 6.24107 10.2829 5.50083 10.8928 4.79206Z" fill="black"/>
<path d="M17.1692 2.84861C16.4768 2.41419 14.9356 3.07725 13.1599 4.79206C13.7571 5.48679 14.3199 6.21174 14.8463 6.96416C15.7462 7.05233 16.6409 7.18971 17.5266 7.37572C18.0961 4.92925 17.8839 3.24873 17.1692 2.80288M18.0068 1.36244C19.6485 2.32273 19.8272 4.84922 19.1236 7.7987C21.9603 8.65611 24.004 10.0851 24.004 12.0057C24.004 13.9263 21.9603 15.3553 19.1236 16.2127C19.816 19.1622 19.6373 21.6887 18.0068 22.649C16.3763 23.6093 14.1538 22.5118 12.0096 20.4197C9.86533 22.5118 7.6429 23.6093 6.00121 22.649C4.35951 21.6887 4.19199 19.2194 4.88441 16.2127C2.04774 15.3553 0.004 13.9263 0.004 12.0057C0.004 10.0851 2.04774 8.64468 4.88441 7.78727C4.19199 4.83779 4.37068 2.3113 6.00121 1.351C7.63173 0.390707 9.86533 1.48819 12.0096 3.58026C14.1538 1.48819 16.3763 0.390707 18.0068 1.351M12.0096 9.83362C12.4217 9.83364 12.8246 9.95847 13.1675 10.1924C13.5104 10.4263 13.7781 10.7588 13.9368 11.1481C14.0955 11.5374 14.1381 11.9661 14.0594 12.3801C13.9806 12.7942 13.7839 13.1751 13.494 13.475C13.2042 13.7749 12.8342 13.9803 12.4305 14.0653C12.0269 14.1504 11.6077 14.1113 11.2257 13.953C10.8438 13.7947 10.5161 13.5242 10.2839 13.1757C10.0518 12.8272 9.92558 12.4161 9.92117 11.9943C9.9197 11.712 9.97255 11.4323 10.0767 11.1709C10.1809 10.9096 10.3343 10.6718 10.5282 10.4712C10.7221 10.2706 10.9528 10.111 11.207 10.0016C11.4611 9.89219 11.7339 9.83512 12.0096 9.83362ZM6.83881 21.14C7.54239 21.5744 9.0724 20.9113 10.8593 19.1965C10.2621 18.5018 9.69922 17.7768 9.17292 17.0244C8.27213 16.9211 7.37741 16.7685 6.4926 16.5671C5.92303 19.0136 6.13522 20.6941 6.83881 21.14ZM7.63173 14.5779L7.30786 13.9949C7.18161 14.316 7.07348 14.6443 6.98399 14.9781C7.28553 15.0467 7.62057 15.1038 7.96677 15.161L7.63173 14.5779ZM14.9356 13.7091L15.8402 11.9943L14.9356 10.2795C14.6006 9.67357 14.2432 9.13626 13.9193 8.59895C13.3162 8.56466 12.6797 8.56466 12.0096 8.56466C11.3395 8.56466 10.7029 8.56466 10.0999 8.56466C9.77599 9.10196 9.41861 9.63927 9.08357 10.2452L8.17896 11.9943L9.08357 13.7091C9.41861 14.315 9.77599 14.8523 10.0999 15.3896C10.7029 15.3896 11.3395 15.3896 12.0096 15.3896C12.6797 15.3896 13.3162 15.3896 13.9193 15.3896C14.2432 14.8523 14.6006 14.315 14.9356 13.7091ZM12.0096 6.02673C11.7974 6.27824 11.574 6.54117 11.3507 6.84984H12.6685C12.4451 6.54117 12.2218 6.27824 12.0096 6.02673ZM12.0096 17.9618C12.2218 17.7103 12.4451 17.4474 12.6685 17.1387H11.3507C11.574 17.4474 11.7974 17.7103 12.0096 17.9618ZM16.3874 9.3649L16.7113 9.94794C16.8376 9.62683 16.9457 9.29857 17.0352 8.96478C16.7336 8.89619 16.3986 8.83903 16.0524 8.78186L16.3874 9.3649ZM17.6829 11.9943C18.0708 12.8359 18.4138 13.6983 18.7104 14.5779C21.0557 13.8577 22.3735 12.8288 22.3735 11.9943C22.3735 11.1597 21.0221 10.1309 18.7104 9.41063C18.4138 10.2902 18.0708 11.1527 17.6829 11.9943ZM6.33625 11.9943C5.94838 11.1527 5.60539 10.2902 5.30879 9.41063C2.96352 10.1309 1.64569 11.1597 1.64569 11.9943C1.64569 12.8288 2.99702 13.8577 5.30879 14.5779C5.60539 13.6983 5.94838 12.8359 6.33625 11.9943ZM16.3874 14.5779L16.0524 15.161C16.3986 15.161 16.7336 15.0467 17.0352 14.9781C16.9457 14.6443 16.8376 14.316 16.7113 13.9949L16.3874 14.5779ZM13.1264 19.1965C14.9021 20.9113 16.4768 21.5744 17.1357 21.14C17.7946 20.7055 18.0626 19.0593 17.4931 16.5671C16.6074 16.7531 15.7127 16.8905 14.8127 16.9787C14.2877 17.7467 13.7248 18.4869 13.1264 19.1965ZM7.63173 9.41063L7.96677 8.82759C7.62057 8.82759 7.28553 8.94192 6.98399 9.01051C7.07348 9.3443 7.18161 9.67256 7.30786 9.99367L7.63173 9.41063ZM10.8928 4.79206C9.08357 3.07725 7.54239 2.41419 6.83881 2.84861C6.13522 3.28303 5.92303 4.92925 6.4926 7.42145C7.37823 7.23544 8.27295 7.09805 9.17292 7.00989C9.70888 6.24107 10.2829 5.50083 10.8928 4.79206Z" fill="black"/>
</svg>
